<svg width="64" height="64" viewBox="0 0 64 64" fill="none" xmlns="http://www.w3.org/2000/svg">
<path d="M10.8602 20H53.0702L54.9302 22.64L57.5702 51L55.4302 56.57L50.5002 59.86H13.6402L8.43021 56.93L6.21021 50L8.93021 21.43L10.8602 20Z" fill="#78B9EB" id="id_104"></path>
<path d="M58.8301 49.53L56.2701 22.59C56.1752 21.5751 55.7038 20.6324 54.9486 19.9477C54.1935 19.2629 53.2095 18.8856 52.1901 18.89H46.5401V17.29C46.5401 13.4338 45.0082 9.73545 42.2814 7.00867C39.5547 4.28189 35.8563 2.75 32.0001 2.75C28.1439 2.75 24.4455 4.28189 21.7188 7.00867C18.992 9.73545 17.4601 13.4338 17.4601 17.29V18.89H11.8101C10.7907 18.8856 9.80666 19.2629 9.05155 19.9477C8.29645 20.6324 7.82503 21.5751 7.7301 22.59L5.1701 49.53C5.02639 51.0146 5.19493 52.5128 5.66489 53.9283C6.13484 55.3438 6.89582 56.6454 7.89888 57.7492C8.90194 58.853 10.1249 59.7348 11.4891 60.3377C12.8533 60.9406 14.3286 61.2514 15.8201 61.25H48.1801C49.6716 61.2514 51.1469 60.9406 52.5111 60.3377C53.8753 59.7348 55.0983 58.853 56.1013 57.7492C57.1044 56.6454 57.8654 55.3438 58.3353 53.9283C58.8053 52.5128 58.9738 51.0146 58.8301 49.53V49.53ZM20.0001 17.29C20.0001 15.7089 20.3115 14.1433 20.9166 12.6825C21.5217 11.2217 22.4085 9.89445 23.5265 8.77643C24.6446 7.65842 25.9718 6.77156 27.4326 6.16649C28.8934 5.56142 30.459 5.25 32.0401 5.25C33.6212 5.25 35.1868 5.56142 36.6476 6.16649C38.1084 6.77156 39.4356 7.65842 40.5537 8.77643C41.6717 9.89445 42.5585 11.2217 43.1636 12.6825C43.7687 14.1433 44.0801 15.7089 44.0801 17.29V18.89H20.0001V17.29ZM54.2501 56.06C53.481 56.9058 52.5439 57.5819 51.4988 58.0451C50.4536 58.5083 49.3233 58.7484 48.1801 58.75H15.8201C14.676 58.7482 13.5448 58.5076 12.499 58.0435C11.4532 57.5794 10.5158 56.9022 9.74672 56.055C8.9777 55.2078 8.39399 54.2095 8.03296 53.1238C7.67193 52.0381 7.54153 50.889 7.6501 49.75L10.2201 22.82C10.2575 22.4248 10.4415 22.0579 10.7357 21.7915C11.0299 21.525 11.4132 21.3782 11.8101 21.38H52.1901C52.587 21.3782 52.9703 21.525 53.2645 21.7915C53.5587 22.0579 53.7427 22.4248 53.7801 22.82L56.3501 49.75C56.4571 50.8899 56.3256 52.0396 55.9641 53.126C55.6025 54.2123 55.0188 55.2115 54.2501 56.06V56.06Z" fill="#418fde" id="id_105"></path>
<path d="M45.2902 27.61C45.1227 27.6047 44.9558 27.633 44.7995 27.6934C44.6432 27.7538 44.5007 27.8451 44.3803 27.9617C44.26 28.0783 44.1643 28.2179 44.099 28.3722C44.0337 28.5266 44.0001 28.6924 44.0002 28.86V31.71C44.0002 33.2911 43.6887 34.8568 43.0837 36.3175C42.4786 37.7783 41.5917 39.1056 40.4737 40.2236C39.3557 41.3416 38.0284 42.2285 36.5677 42.8335C35.1069 43.4386 33.5413 43.75 31.9602 43.75C30.379 43.75 28.8134 43.4386 27.3527 42.8335C25.8919 42.2285 24.5646 41.3416 23.4466 40.2236C22.3286 39.1056 21.4417 37.7783 20.8367 36.3175C20.2316 34.8568 19.9202 33.2911 19.9202 31.71V28.86C19.9202 28.5285 19.7885 28.2106 19.554 27.9761C19.3196 27.7417 19.0017 27.61 18.6702 27.61C18.3386 27.61 18.0207 27.7417 17.7863 27.9761C17.5519 28.2106 17.4202 28.5285 17.4202 28.86V31.71C17.4202 35.5663 18.9521 39.2646 21.6788 41.9913C24.4056 44.7181 28.1039 46.25 31.9602 46.25C35.8164 46.25 39.5147 44.7181 42.2415 41.9913C44.9683 39.2646 46.5002 35.5663 46.5002 31.71V28.86C46.5003 28.5353 46.3741 28.2233 46.1483 27.99C45.9225 27.7567 45.6147 27.6204 45.2902 27.61Z" fill="#418fde" id="id_106"></path>
</svg>